<svg width="24" height="24" viewBox="0 0 24 24" fill="none" xmlns="http://www.w3.org/2000/svg"><g id="24 / time / alarm-no"><path id="icon" fill-rule="evenodd" clip-rule="evenodd" d="M2.33574 3.75L1.29285 4.79289L2.70706 6.20711L3.74995 5.16421L4.25701 5.67127C2.84632 7.39514 1.99995 9.59873 1.99995 12C1.99995 17.5228 6.47711 22 12 22C14.4012 22 16.6048 21.1536 18.3287 19.7429L21.2928 22.7071L22.7071 21.2929L2.70706 1.29289L1.29285 2.70711L2.33574 3.75ZM16.9056 18.3199L5.6801 7.09436C4.62704 8.44904 3.99995 10.1513 3.99995 12C3.99995 16.4183 7.58168 20 12 20C13.8487 20 15.5509 19.3729 16.9056 18.3199ZM20 12C20 13.1162 19.7713 14.1791 19.3584 15.1442L20.8584 16.6442C21.5874 15.2565 22 13.6764 22 12C22 6.47715 17.5228 2 12 2C10.3235 2 8.74348 2.41251 7.35573 3.14157L8.85572 4.64156C9.8209 4.22861 10.8837 4 12 4C16.4182 4 20 7.58172 20 12ZM19.2071 1.29289L22.7071 4.79289L21.2928 6.20711L17.7928 2.70711L19.2071 1.29289Z" fill="black"/></g></svg>