<svg width="24" height="24" viewBox="0 0 24 24" fill="none" xmlns="http://www.w3.org/2000/svg"><g id="24 / time / alarm-plus"><path id="icon" fill-rule="evenodd" clip-rule="evenodd" d="M6.20706 2.70711L4.79285 1.29289L1.29285 4.79289L2.70706 6.20711L6.20706 2.70711ZM19.2071 1.29289L22.7071 4.79289L21.2928 6.20711L17.7928 2.70711L19.2071 1.29289ZM1.99995 12C1.99995 17.5228 6.47711 22 12 22C17.5228 22 22 17.5228 22 12C22 6.47715 17.5228 2 12 2C6.47711 2 1.99995 6.47715 1.99995 12ZM20 12C20 16.4183 16.4182 20 12 20C7.58168 20 3.99995 16.4183 3.99995 12C3.99995 7.58172 7.58168 4 12 4C16.4182 4 20 7.58172 20 12ZM11 13H7.99995V11H11V8H13V11H16V13H13V16H11V13Z" fill="black"/></g></svg>