<svg width="24" height="24" viewBox="0 0 24 24" fill="none" xmlns="http://www.w3.org/2000/svg"> <g id="24 / time / alarm-checked"> <path id="icon" fill-rule="evenodd" clip-rule="evenodd" d="M4.79285 1.29289L6.20706 2.70711L2.70706 6.20711L1.29285 4.79289L4.79285 1.29289ZM22.7071 4.79289L19.2071 1.29289L17.7928 2.70711L21.2928 6.20711L22.7071 4.79289ZM12 22C6.47711 22 1.99995 17.5228 1.99995 12C1.99995 6.47715 6.47711 2 12 2C17.5228 2 22 6.47715 22 12C22 17.5228 17.5228 22 12 22ZM12 20C16.4182 20 20 16.4183 20 12C20 7.58172 16.4182 4 12 4C7.58168 4 3.99995 7.58172 3.99995 12C3.99995 16.4183 7.58168 20 12 20ZM15.2928 8.29289L11 12.5858L8.70706 10.2929L7.29285 11.7071L11 15.4142L16.7071 9.70711L15.2928 8.29289Z" fill="black"/> </g> </svg>