<svg width="24" height="24" viewBox="0 0 24 24" fill="none" xmlns="http://www.w3.org/2000/svg">
<g id="24 / gadgets / battery-no">
<path id="icon" fill-rule="evenodd" clip-rule="evenodd" d="M4.58579 6.00001L1.29289 2.70712L2.70711 1.29291L22.7071 21.2929L21.2929 22.7071L16.5858 18H3C1.89543 18 1 17.1046 1 16V8.00001C1 6.89544 1.89543 6.00001 3 6.00001H4.58579ZM14.5858 16L6.58579 8.00001H3V16H14.5858ZM10.2071 6.00001H19C20.1046 6.00001 21 6.89544 21 8.00001V9.00001C22.1046 9.00001 23 9.89544 23 11V13C23 14.1046 22.1046 15 21 15V16C21 16.2372 20.9587 16.4647 20.8829 16.6758L19 14.7929V8.00001H12.2071L10.2071 6.00001Z" fill="black"/>
</g>
</svg>
