<svg width="24" height="24" viewBox="0 0 24 24" fill="none" xmlns="http://www.w3.org/2000/svg">
<g id="24 / connection / broadcast">
<path id="icon" fill-rule="evenodd" clip-rule="evenodd" d="M4.40763 4.03999L5.88599 5.39515C4.11104 7.03906 3 9.38961 3 11.9997C3 14.6097 4.11104 16.9603 5.88599 18.6042L4.40763 19.9593C2.30811 17.9561 1 15.1307 1 11.9997C1 8.86868 2.30811 6.04322 4.40763 4.03999ZM9 12C9 13.6568 10.3431 15 12 15C13.6569 15 15 13.6568 15 12C15 10.3431 13.6569 8.99999 12 8.99999C10.3431 8.99999 9 10.3431 9 12ZM13 12C13 12.5523 12.5523 13 12 13C11.4477 13 11 12.5523 11 12C11 11.4477 11.4477 11 12 11C12.5523 11 13 11.4477 13 12ZM8.8525 8.11445L7.36666 6.75244C5.91525 8.03502 5 9.91046 5 11.9997C5 14.0889 5.91525 15.9643 7.36666 17.2469L8.8525 15.8849C7.72232 14.9682 7 13.5683 7 11.9997C7 10.4311 7.72232 9.03116 8.8525 8.11445ZM19.5924 4.04032C21.6919 6.04355 23 8.86901 23 12C23 15.131 21.6919 17.9564 19.5924 19.9597L18.114 18.6045C19.889 16.9606 21 14.61 21 12C21 9.38994 19.889 7.03939 18.114 5.39548L19.5924 4.04032ZM19 12C19 9.91079 18.0848 8.03535 16.6333 6.75277L15.1475 8.11478C16.2777 9.03149 17 10.4314 17 12C17 13.5686 16.2777 14.9685 15.1475 15.8852L16.6333 17.2472C18.0848 15.9646 19 14.0892 19 12Z" fill="black"/>
</g>
</svg>
