<svg width="24" height="24" viewBox="0 0 24 24" fill="none" xmlns="http://www.w3.org/2000/svg">
<g id="24 / call / call-muted">
<path id="icon" fill-rule="evenodd" clip-rule="evenodd" d="M10.9744 6.25438C11.5604 6.90391 11.3746 7.63976 10.8565 8.33797C10.7337 8.50351 10.5921 8.66662 10.4211 8.84634C10.339 8.93261 10.275 8.99749 10.1411 9.1315L9.37435 9.89869C9.2739 9.99913 9.95972 11.3696 11.2907 12.7019C12.621 14.0335 13.9914 14.7198 14.0923 14.6188L14.8585 13.8521C15.2805 13.4298 15.504 13.226 15.811 13.0245C16.4494 12.6057 17.1457 12.4919 17.7329 13.017C19.6503 14.3885 20.7354 15.2302 21.2669 15.7825C22.3037 16.8598 22.1678 18.518 21.2728 19.4641C20.9624 19.7921 20.5689 20.1858 20.1041 20.6339C17.2926 23.447 11.3589 21.7351 6.81139 17.1831C2.26285 12.6301 0.551816 6.69584 3.35747 3.88868C3.86116 3.37707 4.02723 3.21108 4.51779 2.72772C5.43112 1.82779 7.16589 1.68688 8.22044 2.72861C8.77515 3.27657 9.65949 4.4144 10.9744 6.25438ZM16.2721 15.2662L15.5057 16.033C14.203 17.3364 11.9845 16.2254 9.87697 14.1158C7.76802 12.0048 6.65821 9.78707 7.96136 8.48403L8.72738 7.71759C8.84996 7.59489 8.90603 7.53805 8.97333 7.46732C9.06503 7.37094 9.14038 7.2863 9.20071 7.2114C8.03534 5.58806 7.24314 4.57371 6.81608 4.15184C6.59552 3.93396 6.10166 3.97408 5.92035 4.15273C5.4368 4.62919 5.27786 4.78805 4.7762 5.29756C2.97188 7.10286 4.35315 11.8934 8.22513 15.7692C12.0959 19.6438 16.8857 21.0257 18.7037 19.2069C19.1613 18.7655 19.5342 18.3925 19.8212 18.0891C20.0286 17.8699 20.0656 17.4176 19.8271 17.1698C19.4297 16.7569 18.457 15.9985 16.7773 14.7923C16.6549 14.8908 16.5044 15.0337 16.2721 15.2662ZM20.2928 2.29289L17.9999 4.58579L15.707 2.29289L14.2928 3.70711L16.5857 6L14.2928 8.29289L15.707 9.70711L17.9999 7.41421L20.2928 9.70711L21.707 8.29289L19.4141 6L21.707 3.70711L20.2928 2.29289Z" fill="black"/>
</g>
</svg>
