<svg width="24" height="24" viewBox="0 0 24 24" fill="none" xmlns="http://www.w3.org/2000/svg">
<g id="24 / security / key-no">
<path id="icon" fill-rule="evenodd" clip-rule="evenodd" d="M1.29285 2.70711L8.0128 9.42706C8.03339 9.76854 8.07867 10.1061 8.14796 10.4378L1.99995 16.5858V22H8.99995V20H11V18H13V16H14.5857L21.2928 22.7071L22.7071 21.2929L2.70706 1.29289L1.29285 2.70711ZM9.99995 11.4142L12.5857 14H11V16H8.99995V18H6.99995V20H3.99995V17.4142L9.99995 11.4142ZM9.23805 5.02389C10.5012 3.19694 12.6108 2 15 2C18.8659 2 22 5.13401 22 9C22 11.3892 20.803 13.4988 18.9761 14.7619L17.5286 13.3144C19.0073 12.4459 20 10.8389 20 9C20 6.23858 17.7614 4 15 4C13.1611 4 11.5541 4.99267 10.6855 6.47138L9.23805 5.02389ZM15 7C13.9642 7 13.1124 7.78728 13.0102 8.79606L15.2039 10.9897C16.2127 10.8876 17 10.0357 17 9C17 7.89543 16.1045 7 15 7Z" fill="black"/>
</g>
</svg>
