<svg width="24" height="24" viewBox="0 0 24 24" fill="none" xmlns="http://www.w3.org/2000/svg">
<g id="24 / connection / wi-fi-no">
<path id="icon" fill-rule="evenodd" clip-rule="evenodd" d="M2.70718 1.29289L1.29297 2.70711L5.28389 6.69803C4.13198 7.32515 3.04952 8.12597 2.07499 9.1005C2.0499 9.12559 2.02493 9.15075 2.00008 9.17598L3.41434 10.5902C3.43916 10.565 3.46411 10.5398 3.4892 10.5147C4.47246 9.53146 5.58389 8.75451 6.76972 8.18386L8.24546 9.6596C6.97251 10.1465 5.77903 10.9029 4.75303 11.9289L6.16724 13.3431C7.21933 12.2911 8.49155 11.5933 9.83563 11.2498L11.5904 13.0045C10.1337 13.061 8.69358 13.6452 7.58146 14.7574L8.99567 16.1716C10.5578 14.6095 13.0904 14.6095 14.6525 16.1716L14.705 16.1191L21.293 22.7071L22.7072 21.2929L2.70718 1.29289ZM13.3272 9.11295L17.5192 13.3049L18.8952 11.9289C17.326 10.3598 15.3651 9.42111 13.3272 9.11295ZM9.44364 5.22935L11.2368 7.02255C14.516 6.82183 17.8619 7.96093 20.3842 10.4399L21.7985 9.02559C18.4244 5.70128 13.7827 4.43587 9.44364 5.22935ZM13.2383 17.5858C12.4573 16.8047 11.1909 16.8047 10.4099 17.5858L11.8241 19L13.2383 17.5858Z" fill="black"/>
</g>
</svg>
