<svg width="24" height="24" viewBox="0 0 24 24" fill="none" xmlns="http://www.w3.org/2000/svg"><g id="24 / arrows / arrows-hv"><path id="icon" fill-rule="evenodd" clip-rule="evenodd" d="M19.5857 13H12.9999V19.5858L15.2928 17.2929L16.707 18.7071L11.9999 23.4142L7.2928 18.7071L8.70701 17.2929L10.9999 19.5858V13H4.41412L6.70701 15.2929L5.2928 16.7071L0.585693 12L5.2928 7.29289L6.70701 8.70711L4.41412 11H10.9999V4.41421L8.70701 6.70711L7.2928 5.29289L11.9999 0.585785L16.707 5.29289L15.2928 6.70711L12.9999 4.41421V11H19.5857L17.2928 8.70711L18.707 7.29289L23.4141 12L18.707 16.7071L17.2928 15.2929L19.5857 13Z" fill="black"/></g></svg>