<svg width="24" height="24" viewBox="0 0 24 24" fill="none" xmlns="http://www.w3.org/2000/svg">
<g id="24 / call / call-phone">
<path id="icon" fill-rule="evenodd" clip-rule="evenodd" d="M10.8565 8.33797C11.3746 7.63976 11.5604 6.90391 10.9744 6.25438C9.65949 4.4144 8.77515 3.27657 8.22044 2.72861C7.16589 1.68688 5.43112 1.82779 4.51779 2.72772C4.02723 3.21108 3.86116 3.37707 3.35747 3.88868C0.551816 6.69584 2.26285 12.6301 6.81139 17.1831C11.3589 21.7351 17.2926 23.447 20.1041 20.6339C20.5689 20.1858 20.9624 19.7921 21.2728 19.4641C22.1678 18.518 22.3037 16.8598 21.2669 15.7825C20.7354 15.2302 19.6503 14.3885 17.7329 13.017C17.1457 12.4919 16.4494 12.6057 15.811 13.0245C15.504 13.226 15.2805 13.4298 14.8585 13.8521L14.0923 14.6188C13.9914 14.7198 12.621 14.0335 11.2907 12.7019C9.95972 11.3696 9.2739 9.99913 9.37435 9.89869L10.1411 9.1315C10.275 8.99749 10.339 8.93261 10.4211 8.84634C10.5921 8.66662 10.7337 8.50351 10.8565 8.33797ZM15.5057 16.033L16.2721 15.2662C16.5044 15.0337 16.6549 14.8908 16.7773 14.7923C18.457 15.9985 19.4297 16.7569 19.8271 17.1698C20.0656 17.4176 20.0286 17.8699 19.8212 18.0891C19.5342 18.3925 19.1613 18.7655 18.7037 19.2069C16.8857 21.0257 12.0959 19.6438 8.22513 15.7692C4.35315 11.8934 2.97188 7.10286 4.7762 5.29756C5.27786 4.78805 5.4368 4.62919 5.92035 4.15273C6.10166 3.97408 6.59552 3.93396 6.81608 4.15184C7.24314 4.57371 8.03534 5.58806 9.20071 7.2114C9.14038 7.2863 9.06503 7.37094 8.97333 7.46732C8.90603 7.53805 8.84996 7.59489 8.72738 7.71759L7.96136 8.48403C6.65821 9.78707 7.76802 12.0048 9.87697 14.1158C11.9845 16.2254 14.203 17.3364 15.5057 16.033Z" fill="black"/>
</g>
</svg>
