<svg width="24" height="24" viewBox="0 0 24 24" fill="none" xmlns="http://www.w3.org/2000/svg">
<g id="24 / basic / paperclip">
<path id="icon" fill-rule="evenodd" clip-rule="evenodd" d="M13.3432 6.54359L14.7682 7.94693L8.44998 14.3627C8.13295 14.6863 8.13295 15.207 8.44998 15.5306C8.75083 15.8377 9.2534 15.8363 9.55103 15.5289L16.5024 8.46732C17.5172 7.43169 17.5172 5.76848 16.5024 4.73285C15.5342 3.74475 13.821 3.76673 12.8721 4.73473L5.28478 12.4369C3.57178 14.1843 3.57178 16.9903 5.28478 18.7377C6.94819 20.4345 9.80568 20.4069 11.4431 18.7361L20.2921 9.74889L21.7172 11.1521L12.8699 20.1377C10.456 22.6007 6.31032 22.6408 3.85657 20.1378C1.38118 17.6126 1.38118 13.5619 3.85828 11.0351L11.4456 3.33292C13.169 1.57485 16.1703 1.53635 17.9309 3.33307C19.7077 5.14633 19.7077 8.05384 17.9293 9.86874L10.9821 16.9261C9.90743 18.036 8.10958 18.041 7.02138 16.9303C5.94248 15.8291 5.94248 14.0642 7.02318 12.9612L13.3432 6.54359Z" fill="black"/>
</g>
</svg>
